<svg width="1778" height="808" viewBox="0 0 1778 808" fill="none" xmlns="http://www.w3.org/2000/svg">
<g filter="url(#filter0_bd_1_17152)">
<path d="M1676.13 219.738C1677.91 222.839 1677.89 226.652 1676.09 229.738L1596.54 366.193C1594.74 369.279 1591.43 371.171 1587.86 371.156L1429.9 370.494C1426.33 370.479 1423.04 368.559 1421.26 365.458L1265.51 93.038C1261.7 86.3772 1266.5 78.086 1274.18 78.0746L1589.05 77.6087C1592.64 77.6034 1595.96 79.5259 1597.74 82.6449L1676.13 219.738Z" fill="black" fill-opacity="0.1" shape-rendering="crispEdges"/>
<path d="M1676.13 219.738C1677.91 222.839 1677.89 226.652 1676.09 229.738L1596.54 366.193C1594.74 369.279 1591.43 371.171 1587.86 371.156L1429.9 370.494C1426.33 370.479 1423.04 368.559 1421.26 365.458L1265.51 93.038C1261.7 86.3772 1266.5 78.086 1274.18 78.0746L1589.05 77.6087C1592.64 77.6034 1595.96 79.5259 1597.74 82.6449L1676.13 219.738Z" stroke="#969696" stroke-opacity="0.1" shape-rendering="crispEdges"/>
</g>
<g filter="url(#filter1_bd_1_17152)">
<path d="M1572.45 98.8398C1579.6 98.8398 1586.2 102.652 1589.77 108.84L1649.57 212.41C1653.14 218.598 1653.14 226.222 1649.57 232.41L1589.77 335.97C1586.2 342.158 1579.6 345.97 1572.45 345.97H1452.87C1445.72 345.97 1439.12 342.158 1435.55 335.971L1375.75 232.411C1372.17 226.222 1372.17 218.597 1375.74 212.409L1435.55 108.839C1439.12 102.652 1445.72 98.8398 1452.87 98.8398H1572.45Z" fill="black" fill-opacity="0.1" shape-rendering="crispEdges"/>
<path d="M1572.45 98.8398C1579.6 98.8398 1586.2 102.652 1589.77 108.84L1649.57 212.41C1653.14 218.598 1653.14 226.222 1649.57 232.41L1589.77 335.97C1586.2 342.158 1579.6 345.97 1572.45 345.97H1452.87C1445.72 345.97 1439.12 342.158 1435.55 335.971L1375.75 232.411C1372.17 226.222 1372.17 218.597 1375.74 212.409L1435.55 108.839C1439.12 102.652 1445.72 98.8398 1452.87 98.8398H1572.45Z" stroke="#969696" stroke-opacity="0.1" shape-rendering="crispEdges"/>
</g>
<g filter="url(#filter2_bd_1_17152)">
<path d="M1072.64 76.002C1069.07 76.0008 1065.77 77.9056 1063.98 80.999L984.959 217.761C983.171 220.854 983.17 224.666 984.955 227.761L1063.89 364.589C1065.68 367.684 1068.98 369.591 1072.55 369.592L1386.35 369.675C1394.03 369.677 1398.84 361.395 1395.05 354.727L1239.25 81.1098C1237.47 77.9877 1234.15 76.0592 1230.56 76.0579L1072.64 76.002Z" fill="black" fill-opacity="0.1" shape-rendering="crispEdges"/>
<path d="M1072.64 76.002C1069.07 76.0008 1065.77 77.9056 1063.98 80.999L984.959 217.761C983.171 220.854 983.17 224.666 984.955 227.761L1063.89 364.589C1065.68 367.684 1068.98 369.591 1072.55 369.592L1386.35 369.675C1394.03 369.677 1398.84 361.395 1395.05 354.727L1239.25 81.1098C1237.47 77.9877 1234.15 76.0592 1230.56 76.0579L1072.64 76.002Z" stroke="#969696" stroke-opacity="0.1" shape-rendering="crispEdges"/>
</g>
<g filter="url(#filter3_bd_1_17152)">
<path d="M1214.95 95.3799C1222.1 95.3799 1228.7 99.1918 1232.27 105.38L1294.32 212.84C1297.89 219.028 1297.89 226.652 1294.32 232.84L1232.27 340.309C1228.7 346.498 1222.1 350.31 1214.95 350.31H1090.87C1083.72 350.31 1077.12 346.498 1073.55 340.31L1011.49 232.841C1007.92 226.652 1007.92 219.028 1011.49 212.839L1073.55 105.379C1077.12 99.1914 1083.72 95.3799 1090.87 95.3799H1214.95Z" fill="black" fill-opacity="0.1" shape-rendering="crispEdges"/>
<path d="M1214.95 95.3799C1222.1 95.3799 1228.7 99.1918 1232.27 105.38L1294.32 212.84C1297.89 219.028 1297.89 226.652 1294.32 232.84L1232.27 340.309C1228.7 346.498 1222.1 350.31 1214.95 350.31H1090.87C1083.72 350.31 1077.12 346.498 1073.55 340.31L1011.49 232.841C1007.92 226.652 1007.92 219.028 1011.49 212.839L1073.55 105.379C1077.12 99.1914 1083.72 95.3799 1090.87 95.3799H1214.95Z" stroke="#969696" stroke-opacity="0.1" shape-rendering="crispEdges"/>
</g>
<g filter="url(#filter4_bd_1_17152)">
<path d="M985.336 527.978C983.563 531.079 983.579 534.892 985.378 537.978L1064.93 674.433C1066.73 677.519 1070.04 679.411 1073.61 679.396L1231.58 678.734C1235.15 678.719 1238.44 676.799 1240.22 673.698L1395.96 401.288C1399.77 394.627 1394.97 386.336 1387.29 386.325L1072.42 385.859C1068.83 385.853 1065.51 387.776 1063.73 390.895L985.336 527.978Z" fill="black" fill-opacity="0.1" shape-rendering="crispEdges"/>
<path d="M985.336 527.978C983.563 531.079 983.579 534.892 985.378 537.978L1064.93 674.433C1066.73 677.519 1070.04 679.411 1073.61 679.396L1231.58 678.734C1235.15 678.719 1238.44 676.799 1240.22 673.698L1395.96 401.288C1399.77 394.627 1394.97 386.336 1387.29 386.325L1072.42 385.859C1068.83 385.853 1065.51 387.776 1063.73 390.895L985.336 527.978Z" stroke="#969696" stroke-opacity="0.1" shape-rendering="crispEdges"/>
</g>
<g filter="url(#filter5_bd_1_17152)">
<path d="M1213.08 402.9C1220.23 402.9 1226.83 406.712 1230.4 412.9L1292.54 520.52C1296.11 526.708 1296.11 534.332 1292.54 540.52L1230.4 648.13C1226.83 654.318 1220.23 658.13 1213.08 658.13H1088.82C1081.67 658.13 1075.07 654.318 1071.5 648.129L1009.37 540.519C1005.8 534.331 1005.8 526.708 1009.37 520.521L1071.5 412.901C1075.07 406.712 1081.67 402.9 1088.82 402.9H1213.08Z" fill="black" fill-opacity="0.1" shape-rendering="crispEdges"/>
<path d="M1213.08 402.9C1220.23 402.9 1226.83 406.712 1230.4 412.9L1292.54 520.52C1296.11 526.708 1296.11 534.332 1292.54 540.52L1230.4 648.13C1226.83 654.318 1220.23 658.13 1213.08 658.13H1088.82C1081.67 658.13 1075.07 654.318 1071.5 648.129L1009.37 540.519C1005.8 534.331 1005.8 526.708 1009.37 520.521L1071.5 412.901C1075.07 406.712 1081.67 402.9 1088.82 402.9H1213.08Z" stroke="#969696" stroke-opacity="0.1" shape-rendering="crispEdges"/>
</g>
<g filter="url(#filter6_bd_1_17152)">
<path d="M1587.11 388.082C1590.68 388.081 1593.98 389.986 1595.77 393.08L1674.78 529.851C1676.57 532.944 1676.57 536.756 1674.78 539.851L1595.85 676.66C1594.06 679.754 1590.76 681.661 1587.19 681.662L1273.39 681.764C1265.72 681.767 1260.9 673.484 1264.7 666.816L1420.5 393.19C1422.28 390.068 1425.6 388.139 1429.19 388.138L1587.11 388.082Z" fill="black" fill-opacity="0.1" shape-rendering="crispEdges"/>
<path d="M1587.11 388.082C1590.68 388.081 1593.98 389.986 1595.77 393.08L1674.78 529.851C1676.57 532.944 1676.57 536.756 1674.78 539.851L1595.85 676.66C1594.06 679.754 1590.76 681.661 1587.19 681.662L1273.39 681.764C1265.72 681.767 1260.9 673.484 1264.7 666.816L1420.5 393.19C1422.28 390.068 1425.6 388.139 1429.19 388.138L1587.11 388.082Z" stroke="#969696" stroke-opacity="0.1" shape-rendering="crispEdges"/>
</g>
<g filter="url(#filter7_bd_1_17152)">
<path d="M1571.75 406.4C1578.9 406.4 1585.5 410.212 1589.07 416.399L1650.91 523.489C1654.48 529.678 1654.48 537.302 1650.91 543.49L1589.07 650.58C1585.5 656.768 1578.9 660.58 1571.75 660.58H1448.11C1440.96 660.58 1434.36 656.768 1430.79 650.58L1368.95 543.49C1365.38 537.302 1365.38 529.678 1368.95 523.489L1430.79 416.399C1434.36 410.212 1440.96 406.4 1448.11 406.4H1571.75Z" fill="black" fill-opacity="0.1" shape-rendering="crispEdges"/>
<path d="M1571.75 406.4C1578.9 406.4 1585.5 410.212 1589.07 416.399L1650.91 523.489C1654.48 529.678 1654.48 537.302 1650.91 543.49L1589.07 650.58C1585.5 656.768 1578.9 660.58 1571.75 660.58H1448.11C1440.96 660.58 1434.36 656.768 1430.79 650.58L1368.95 543.49C1365.38 537.302 1365.38 529.678 1368.95 523.489L1430.79 416.399C1434.36 410.212 1440.96 406.4 1448.11 406.4H1571.75Z" stroke="#969696" stroke-opacity="0.1" shape-rendering="crispEdges"/>
</g>
<g filter="url(#filter8_bd_1_17152)">
<path d="M101.866 219.738C100.093 222.839 100.109 226.652 101.908 229.738L181.462 366.193C183.262 369.279 186.571 371.171 190.143 371.156L348.096 370.494C351.669 370.479 354.962 368.559 356.736 365.458L512.489 93.038C516.298 86.3772 511.496 78.086 503.823 78.0746L188.951 77.6087C185.358 77.6034 182.039 79.5259 180.255 82.6449L101.866 219.738Z" fill="black" fill-opacity="0.1" shape-rendering="crispEdges"/>
<path d="M101.866 219.738C100.093 222.839 100.109 226.652 101.908 229.738L181.462 366.193C183.262 369.279 186.571 371.171 190.143 371.156L348.096 370.494C351.669 370.479 354.962 368.559 356.736 365.458L512.489 93.038C516.298 86.3772 511.496 78.086 503.823 78.0746L188.951 77.6087C185.358 77.6034 182.039 79.5259 180.255 82.6449L101.866 219.738Z" stroke="#969696" stroke-opacity="0.1" shape-rendering="crispEdges"/>
</g>
<g filter="url(#filter9_bd_1_17152)">
<path d="M205.547 98.8398C198.402 98.8398 191.799 102.652 188.227 108.84L128.433 212.41C124.861 218.598 124.861 226.222 128.434 232.41L188.227 335.97C191.799 342.158 198.402 345.97 205.547 345.97H325.134C332.279 345.97 338.881 342.158 342.454 335.971L402.255 232.411C405.829 226.222 405.829 218.597 402.255 212.409L342.454 108.839C338.881 102.651 332.279 98.8398 325.134 98.8398H205.547Z" fill="black" fill-opacity="0.1" shape-rendering="crispEdges"/>
<path d="M205.547 98.8398C198.402 98.8398 191.799 102.652 188.227 108.84L128.433 212.41C124.861 218.598 124.861 226.222 128.434 232.41L188.227 335.97C191.799 342.158 198.402 345.97 205.547 345.97H325.134C332.279 345.97 338.881 342.158 342.454 335.971L402.255 232.411C405.829 226.222 405.829 218.597 402.255 212.409L342.454 108.839C338.881 102.651 332.279 98.8398 325.134 98.8398H205.547Z" stroke="#969696" stroke-opacity="0.1" shape-rendering="crispEdges"/>
</g>
<g filter="url(#filter10_bd_1_17152)">
<path d="M705.356 76.002C708.929 76.0008 712.231 77.9056 714.018 80.999L793.041 217.761C794.829 220.854 794.83 224.666 793.045 227.761L714.105 364.589C712.32 367.684 709.019 369.591 705.446 369.592L391.647 369.675C383.974 369.677 379.158 361.395 382.954 354.727L538.755 81.1098C540.532 77.9877 543.848 76.0592 547.441 76.0579L705.356 76.002Z" fill="black" fill-opacity="0.1" shape-rendering="crispEdges"/>
<path d="M705.356 76.002C708.929 76.0008 712.231 77.9056 714.018 80.999L793.041 217.761C794.829 220.854 794.83 224.666 793.045 227.761L714.105 364.589C712.32 367.684 709.019 369.591 705.446 369.592L391.647 369.675C383.974 369.677 379.158 361.395 382.954 354.727L538.755 81.1098C540.532 77.9877 543.848 76.0592 547.441 76.0579L705.356 76.002Z" stroke="#969696" stroke-opacity="0.1" shape-rendering="crispEdges"/>
</g>
<g filter="url(#filter11_bd_1_17152)">
<path d="M563.047 95.3799C555.902 95.3799 549.299 99.1918 545.727 105.38L483.684 212.84C480.111 219.028 480.111 226.652 483.683 232.84L545.727 340.309C549.299 346.498 555.902 350.31 563.048 350.31H687.134C694.279 350.31 700.881 346.498 704.454 340.31L766.506 232.841C770.079 226.652 770.079 219.028 766.505 212.839L704.454 105.379C700.881 99.1914 694.279 95.3799 687.134 95.3799H563.047Z" fill="black" fill-opacity="0.1" shape-rendering="crispEdges"/>
<path d="M563.047 95.3799C555.902 95.3799 549.299 99.1918 545.727 105.38L483.684 212.84C480.111 219.028 480.111 226.652 483.683 232.84L545.727 340.309C549.299 346.498 555.902 350.31 563.048 350.31H687.134C694.279 350.31 700.881 346.498 704.454 340.31L766.506 232.841C770.079 226.652 770.079 219.028 766.505 212.839L704.454 105.379C700.881 99.1914 694.279 95.3799 687.134 95.3799H563.047Z" stroke="#969696" stroke-opacity="0.1" shape-rendering="crispEdges"/>
</g>
<g filter="url(#filter12_bd_1_17152)">
<path d="M792.664 527.978C794.437 531.079 794.421 534.892 792.622 537.978L713.068 674.433C711.268 677.519 707.959 679.411 704.387 679.396L546.424 678.734C542.851 678.719 539.558 676.799 537.784 673.698L382.04 401.288C378.232 394.627 383.034 386.336 390.707 386.325L705.579 385.859C709.172 385.853 712.491 387.776 714.275 390.895L792.664 527.978Z" fill="black" fill-opacity="0.1" shape-rendering="crispEdges"/>
<path d="M792.664 527.978C794.437 531.079 794.421 534.892 792.622 537.978L713.068 674.433C711.268 677.519 707.959 679.411 704.387 679.396L546.424 678.734C542.851 678.719 539.558 676.799 537.784 673.698L382.04 401.288C378.232 394.627 383.034 386.336 390.707 386.325L705.579 385.859C709.172 385.853 712.491 387.776 714.275 390.895L792.664 527.978Z" stroke="#969696" stroke-opacity="0.1" shape-rendering="crispEdges"/>
</g>
<g filter="url(#filter13_bd_1_17152)">
<path d="M564.917 402.9C557.772 402.9 551.169 406.712 547.596 412.9L485.463 520.52C481.891 526.708 481.891 534.332 485.464 540.52L547.596 648.13C551.169 654.318 557.771 658.13 564.917 658.13H689.182C696.328 658.13 702.931 654.318 706.503 648.129L768.627 540.519C772.2 534.331 772.2 526.708 768.628 520.521L706.503 412.901C702.931 406.712 696.328 402.9 689.182 402.9H564.917Z" fill="black" fill-opacity="0.1" shape-rendering="crispEdges"/>
<path d="M564.917 402.9C557.772 402.9 551.169 406.712 547.596 412.9L485.463 520.52C481.891 526.708 481.891 534.332 485.464 540.52L547.596 648.13C551.169 654.318 557.771 658.13 564.917 658.13H689.182C696.328 658.13 702.931 654.318 706.503 648.129L768.627 540.519C772.2 534.331 772.2 526.708 768.628 520.521L706.503 412.901C702.931 406.712 696.328 402.9 689.182 402.9H564.917Z" stroke="#969696" stroke-opacity="0.1" shape-rendering="crispEdges"/>
</g>
<g filter="url(#filter14_bd_1_17152)">
<path d="M190.894 388.082C187.321 388.081 184.019 389.986 182.232 393.08L103.218 529.851C101.431 532.944 101.43 536.756 103.216 539.851L182.155 676.66C183.94 679.754 187.241 681.661 190.813 681.662L504.602 681.764C512.275 681.767 517.092 673.484 513.296 666.816L357.495 393.19C355.718 390.068 352.402 388.139 348.809 388.138L190.894 388.082Z" fill="black" fill-opacity="0.1" shape-rendering="crispEdges"/>
<path d="M190.894 388.082C187.321 388.081 184.019 389.986 182.232 393.08L103.218 529.851C101.431 532.944 101.43 536.756 103.216 539.851L182.155 676.66C183.94 679.754 187.241 681.661 190.813 681.662L504.602 681.764C512.275 681.767 517.092 673.484 513.296 666.816L357.495 393.19C355.718 390.068 352.402 388.139 348.809 388.138L190.894 388.082Z" stroke="#969696" stroke-opacity="0.1" shape-rendering="crispEdges"/>
</g>
<g filter="url(#filter15_bd_1_17152)">
<path d="M206.247 406.4C199.102 406.4 192.499 410.212 188.926 416.399L127.094 523.489C123.521 529.678 123.521 537.302 127.094 543.49L188.926 650.58C192.499 656.768 199.102 660.58 206.247 660.58H329.893C337.039 660.58 343.641 656.768 347.214 650.58L409.046 543.49C412.619 537.302 412.619 529.678 409.046 523.489L347.214 416.399C343.641 410.212 337.039 406.4 329.893 406.4H206.247Z" fill="black" fill-opacity="0.1" shape-rendering="crispEdges"/>
<path d="M206.247 406.4C199.102 406.4 192.499 410.212 188.926 416.399L127.094 523.489C123.521 529.678 123.521 537.302 127.094 543.49L188.926 650.58C192.499 656.768 199.102 660.58 206.247 660.58H329.893C337.039 660.58 343.641 656.768 347.214 650.58L409.046 543.49C412.619 537.302 412.619 529.678 409.046 523.489L347.214 416.399C343.641 410.212 337.039 406.4 329.893 406.4H206.247Z" stroke="#969696" stroke-opacity="0.1" shape-rendering="crispEdges"/>
</g>
<path d="M864.296 323.542C866.74 325.657 870.07 331.324 871.583 333.929L947.957 466.24C947.957 466.24 952.043 451.416 959.574 443.534C961.735 441.243 968.22 442.931 970.129 440.517C974.215 431.925 979.21 430.497 971.542 417.223L919.424 326.902C914.612 318.57 910.625 317.959 902.95 318.089L872.308 318.012C862.906 318.005 862.25 321.762 864.296 323.542Z" fill="url(#paint0_linear_1_17152)"/>
<path d="M860.256 414.314C860.867 411.144 864.075 405.424 865.602 402.812L926.809 296.803C926.809 296.803 911.672 264.611 908.632 264.168C899.146 264.932 895.411 261.304 887.751 274.586L835.61 364.907C830.798 373.239 832.265 376.997 836.213 383.58C836.213 383.58 848.54 405.072 851.488 410.159C856.178 418.323 859.737 416.987 860.256 414.314Z" fill="url(#paint1_linear_1_17152)"/>
<path d="M895.503 269.537C897.94 271.653 901.277 277.327 902.782 279.932L962.453 383.282C962.453 383.282 999.442 388.934 1001.34 386.52C1005.43 377.928 1010.42 376.5 1002.76 363.226L950.615 272.898C945.804 264.558 941.817 263.954 934.141 264.076L903.5 264C894.075 263.992 893.456 267.75 895.503 269.537Z" fill="url(#paint2_linear_1_17152)"/>
<path d="M955.32 373.56H815.401C815.401 373.56 785.493 402.765 786.631 405.637C792.023 413.473 790.763 418.514 806.091 418.514H941.473L955.32 373.56Z" fill="url(#paint3_linear_1_17152)"/>
<path d="M797.843 414.313C798.461 411.144 801.7 405.423 803.189 402.811L864.174 297.185C864.174 297.185 849.273 264.611 846.226 264.191C836.748 264.955 833.013 261.327 825.345 274.608L773.204 364.906C768.385 373.239 769.859 376.996 773.808 383.58C773.808 383.58 786.127 405.072 789.083 410.158C793.764 418.323 797.331 416.986 797.843 414.313Z" fill="url(#paint4_linear_1_17152)"/>
<path d="M833.12 269.537C835.564 271.653 838.902 277.327 840.406 279.932L904.049 390.209C904.049 390.209 961.987 400.512 954.319 387.238C947.812 375.965 888.202 272.898 888.202 272.898C883.398 264.558 879.403 263.954 871.728 264.076L841.086 264C831.661 263.992 831.043 267.75 833.12 269.537Z" fill="url(#paint5_linear_1_17152)"/>
<path d="M924.128 427.564H838.505C838.505 427.564 816.7 456.777 817.83 459.641C823.23 467.47 821.97 472.511 837.298 472.511H910.259L931.346 446.543L924.128 427.564Z" fill="url(#paint6_linear_1_17152)"/>
<path d="M804.403 418.911L862.525 318.288L888.561 363.349L834.411 456.786C832.883 459.39 829.66 465.118 829.065 468.288C828.545 470.961 824.986 472.29 820.282 464.125C817.349 459.046 805.007 437.547 805.007 437.547C801.043 431.009 799.592 427.251 804.403 418.911Z" fill="url(#paint7_linear_1_17152)"/>
<path d="M910.259 472.503H941.572C951.203 472.503 953.724 469.356 957.451 462.643C957.451 462.643 969.9 441.258 972.833 436.149C977.553 427.984 974.612 425.571 972.069 426.457C969.014 427.511 962.438 427.564 959.429 427.564H924.128L910.259 472.503Z" fill="url(#paint8_linear_1_17152)"/>
<path d="M876.112 418.468H972.794C982.418 418.468 984.946 415.313 988.665 408.608C988.665 408.608 1001.12 387.185 1004.05 382.106C1008.77 373.949 1005.83 371.535 1003.29 372.421C1000.24 373.475 993.668 373.529 990.658 373.529H889.966L876.112 418.468Z" fill="url(#paint9_linear_1_17152)"/>
<defs>
<filter id="filter0_bd_1_17152" x="1163.68" y="2.10889" width="614.276" height="494.547" filterUnits="userSpaceOnUse" color-interpolation-filters="sRGB">
<feFlood flood-opacity="0" result="BackgroundImageFix"/>
<feGaussianBlur in="BackgroundImageFix" stdDeviation="28.0142"/>
<feComposite in2="SourceAlpha" operator="in" result="effect1_backgroundBlur_1_17152"/>
<feColorMatrix in="SourceAlpha" type="matrix" values="0 0 0 0 0 0 0 0 0 0 0 0 0 0 0 0 0 0 127 0" result="hardAlpha"/>
<feOffset dy="25"/>
<feGaussianBlur stdDeviation="50"/>
<feComposite in2="hardAlpha" operator="out"/>
<feColorMatrix type="matrix" values="0 0 0 0 0 0 0 0 0 0 0 0 0 0 0 0 0 0 0.5 0"/>
<feBlend mode="normal" in2="effect1_backgroundBlur_1_17152" result="effect2_dropShadow_1_17152"/>
<feBlend mode="normal" in="SourceGraphic" in2="effect2_dropShadow_1_17152" result="shape"/>
</filter>
<filter id="filter1_bd_1_17152" x="1272.56" y="23.3398" width="480.181" height="448.13" filterUnits="userSpaceOnUse" color-interpolation-filters="sRGB">
<feFlood flood-opacity="0" result="BackgroundImageFix"/>
<feGaussianBlur in="BackgroundImageFix" stdDeviation="28.0142"/>
<feComposite in2="SourceAlpha" operator="in" result="effect1_backgroundBlur_1_17152"/>
<feColorMatrix in="SourceAlpha" type="matrix" values="0 0 0 0 0 0 0 0 0 0 0 0 0 0 0 0 0 0 127 0" result="hardAlpha"/>
<feOffset dy="25"/>
<feGaussianBlur stdDeviation="50"/>
<feComposite in2="hardAlpha" operator="out"/>
<feColorMatrix type="matrix" values="0 0 0 0 0 0 0 0 0 0 0 0 0 0 0 0 0 0 0.5 0"/>
<feBlend mode="normal" in2="effect1_backgroundBlur_1_17152" result="effect2_dropShadow_1_17152"/>
<feBlend mode="normal" in="SourceGraphic" in2="effect2_dropShadow_1_17152" result="shape"/>
</filter>
<filter id="filter2_bd_1_17152" x="883.117" y="0.501953" width="613.754" height="494.673" filterUnits="userSpaceOnUse" color-interpolation-filters="sRGB">
<feFlood flood-opacity="0" result="BackgroundImageFix"/>
<feGaussianBlur in="BackgroundImageFix" stdDeviation="28.0142"/>
<feComposite in2="SourceAlpha" operator="in" result="effect1_backgroundBlur_1_17152"/>
<feColorMatrix in="SourceAlpha" type="matrix" values="0 0 0 0 0 0 0 0 0 0 0 0 0 0 0 0 0 0 127 0" result="hardAlpha"/>
<feOffset dy="25"/>
<feGaussianBlur stdDeviation="50"/>
<feComposite in2="hardAlpha" operator="out"/>
<feColorMatrix type="matrix" values="0 0 0 0 0 0 0 0 0 0 0 0 0 0 0 0 0 0 0.5 0"/>
<feBlend mode="normal" in2="effect1_backgroundBlur_1_17152" result="effect2_dropShadow_1_17152"/>
<feBlend mode="normal" in="SourceGraphic" in2="effect2_dropShadow_1_17152" result="shape"/>
</filter>
<filter id="filter3_bd_1_17152" x="908.315" y="19.8799" width="489.181" height="455.93" filterUnits="userSpaceOnUse" color-interpolation-filters="sRGB">
<feFlood flood-opacity="0" result="BackgroundImageFix"/>
<feGaussianBlur in="BackgroundImageFix" stdDeviation="28.0142"/>
<feComposite in2="SourceAlpha" operator="in" result="effect1_backgroundBlur_1_17152"/>
<feColorMatrix in="SourceAlpha" type="matrix" values="0 0 0 0 0 0 0 0 0 0 0 0 0 0 0 0 0 0 127 0" result="hardAlpha"/>
<feOffset dy="25"/>
<feGaussianBlur stdDeviation="50"/>
<feComposite in2="hardAlpha" operator="out"/>
<feColorMatrix type="matrix" values="0 0 0 0 0 0 0 0 0 0 0 0 0 0 0 0 0 0 0.5 0"/>
<feBlend mode="normal" in2="effect1_backgroundBlur_1_17152" result="effect2_dropShadow_1_17152"/>
<feBlend mode="normal" in="SourceGraphic" in2="effect2_dropShadow_1_17152" result="shape"/>
</filter>
<filter id="filter4_bd_1_17152" x="883.517" y="310.359" width="614.277" height="494.537" filterUnits="userSpaceOnUse" color-interpolation-filters="sRGB">
<feFlood flood-opacity="0" result="BackgroundImageFix"/>
<feGaussianBlur in="BackgroundImageFix" stdDeviation="28.0142"/>
<feComposite in2="SourceAlpha" operator="in" result="effect1_backgroundBlur_1_17152"/>
<feColorMatrix in="SourceAlpha" type="matrix" values="0 0 0 0 0 0 0 0 0 0 0 0 0 0 0 0 0 0 127 0" result="hardAlpha"/>
<feOffset dy="25"/>
<feGaussianBlur stdDeviation="50"/>
<feComposite in2="hardAlpha" operator="out"/>
<feColorMatrix type="matrix" values="0 0 0 0 0 0 0 0 0 0 0 0 0 0 0 0 0 0 0.5 0"/>
<feBlend mode="normal" in2="effect1_backgroundBlur_1_17152" result="effect2_dropShadow_1_17152"/>
<feBlend mode="normal" in="SourceGraphic" in2="effect2_dropShadow_1_17152" result="shape"/>
</filter>
<filter id="filter5_bd_1_17152" x="906.193" y="327.4" width="489.523" height="456.23" filterUnits="userSpaceOnUse" color-interpolation-filters="sRGB">
<feFlood flood-opacity="0" result="BackgroundImageFix"/>
<feGaussianBlur in="BackgroundImageFix" stdDeviation="28.0142"/>
<feComposite in2="SourceAlpha" operator="in" result="effect1_backgroundBlur_1_17152"/>
<feColorMatrix in="SourceAlpha" type="matrix" values="0 0 0 0 0 0 0 0 0 0 0 0 0 0 0 0 0 0 127 0" result="hardAlpha"/>
<feOffset dy="25"/>
<feGaussianBlur stdDeviation="50"/>
<feComposite in2="hardAlpha" operator="out"/>
<feColorMatrix type="matrix" values="0 0 0 0 0 0 0 0 0 0 0 0 0 0 0 0 0 0 0.5 0"/>
<feBlend mode="normal" in2="effect1_backgroundBlur_1_17152" result="effect2_dropShadow_1_17152"/>
<feBlend mode="normal" in="SourceGraphic" in2="effect2_dropShadow_1_17152" result="shape"/>
</filter>
<filter id="filter6_bd_1_17152" x="1162.87" y="312.582" width="613.753" height="494.682" filterUnits="userSpaceOnUse" color-interpolation-filters="sRGB">
<feFlood flood-opacity="0" result="BackgroundImageFix"/>
<feGaussianBlur in="BackgroundImageFix" stdDeviation="28.0142"/>
<feComposite in2="SourceAlpha" operator="in" result="effect1_backgroundBlur_1_17152"/>
<feColorMatrix in="SourceAlpha" type="matrix" values="0 0 0 0 0 0 0 0 0 0 0 0 0 0 0 0 0 0 127 0" result="hardAlpha"/>
<feOffset dy="25"/>
<feGaussianBlur stdDeviation="50"/>
<feComposite in2="hardAlpha" operator="out"/>
<feColorMatrix type="matrix" values="0 0 0 0 0 0 0 0 0 0 0 0 0 0 0 0 0 0 0.5 0"/>
<feBlend mode="normal" in2="effect1_backgroundBlur_1_17152" result="effect2_dropShadow_1_17152"/>
<feBlend mode="normal" in="SourceGraphic" in2="effect2_dropShadow_1_17152" result="shape"/>
</filter>
<filter id="filter7_bd_1_17152" x="1265.77" y="330.9" width="488.311" height="455.18" filterUnits="userSpaceOnUse" color-interpolation-filters="sRGB">
<feFlood flood-opacity="0" result="BackgroundImageFix"/>
<feGaussianBlur in="BackgroundImageFix" stdDeviation="28.0142"/>
<feComposite in2="SourceAlpha" operator="in" result="effect1_backgroundBlur_1_17152"/>
<feColorMatrix in="SourceAlpha" type="matrix" values="0 0 0 0 0 0 0 0 0 0 0 0 0 0 0 0 0 0 127 0" result="hardAlpha"/>
<feOffset dy="25"/>
<feGaussianBlur stdDeviation="50"/>
<feComposite in2="hardAlpha" operator="out"/>
<feColorMatrix type="matrix" values="0 0 0 0 0 0 0 0 0 0 0 0 0 0 0 0 0 0 0.5 0"/>
<feBlend mode="normal" in2="effect1_backgroundBlur_1_17152" result="effect2_dropShadow_1_17152"/>
<feBlend mode="normal" in="SourceGraphic" in2="effect2_dropShadow_1_17152" result="shape"/>
</filter>
<filter id="filter8_bd_1_17152" x="0.0471191" y="2.10889" width="614.276" height="494.547" filterUnits="userSpaceOnUse" color-interpolation-filters="sRGB">
<feFlood flood-opacity="0" result="BackgroundImageFix"/>
<feGaussianBlur in="BackgroundImageFix" stdDeviation="28.0142"/>
<feComposite in2="SourceAlpha" operator="in" result="effect1_backgroundBlur_1_17152"/>
<feColorMatrix in="SourceAlpha" type="matrix" values="0 0 0 0 0 0 0 0 0 0 0 0 0 0 0 0 0 0 127 0" result="hardAlpha"/>
<feOffset dy="25"/>
<feGaussianBlur stdDeviation="50"/>
<feComposite in2="hardAlpha" operator="out"/>
<feColorMatrix type="matrix" values="0 0 0 0 0 0 0 0 0 0 0 0 0 0 0 0 0 0 0.5 0"/>
<feBlend mode="normal" in2="effect1_backgroundBlur_1_17152" result="effect2_dropShadow_1_17152"/>
<feBlend mode="normal" in="SourceGraphic" in2="effect2_dropShadow_1_17152" result="shape"/>
</filter>
<filter id="filter9_bd_1_17152" x="25.2542" y="23.3398" width="480.181" height="448.13" filterUnits="userSpaceOnUse" color-interpolation-filters="sRGB">
<feFlood flood-opacity="0" result="BackgroundImageFix"/>
<feGaussianBlur in="BackgroundImageFix" stdDeviation="28.0142"/>
<feComposite in2="SourceAlpha" operator="in" result="effect1_backgroundBlur_1_17152"/>
<feColorMatrix in="SourceAlpha" type="matrix" values="0 0 0 0 0 0 0 0 0 0 0 0 0 0 0 0 0 0 127 0" result="hardAlpha"/>
<feOffset dy="25"/>
<feGaussianBlur stdDeviation="50"/>
<feComposite in2="hardAlpha" operator="out"/>
<feColorMatrix type="matrix" values="0 0 0 0 0 0 0 0 0 0 0 0 0 0 0 0 0 0 0.5 0"/>
<feBlend mode="normal" in2="effect1_backgroundBlur_1_17152" result="effect2_dropShadow_1_17152"/>
<feBlend mode="normal" in="SourceGraphic" in2="effect2_dropShadow_1_17152" result="shape"/>
</filter>
<filter id="filter10_bd_1_17152" x="281.129" y="0.501953" width="613.754" height="494.673" filterUnits="userSpaceOnUse" color-interpolation-filters="sRGB">
<feFlood flood-opacity="0" result="BackgroundImageFix"/>
<feGaussianBlur in="BackgroundImageFix" stdDeviation="28.0142"/>
<feComposite in2="SourceAlpha" operator="in" result="effect1_backgroundBlur_1_17152"/>
<feColorMatrix in="SourceAlpha" type="matrix" values="0 0 0 0 0 0 0 0 0 0 0 0 0 0 0 0 0 0 127 0" result="hardAlpha"/>
<feOffset dy="25"/>
<feGaussianBlur stdDeviation="50"/>
<feComposite in2="hardAlpha" operator="out"/>
<feColorMatrix type="matrix" values="0 0 0 0 0 0 0 0 0 0 0 0 0 0 0 0 0 0 0.5 0"/>
<feBlend mode="normal" in2="effect1_backgroundBlur_1_17152" result="effect2_dropShadow_1_17152"/>
<feBlend mode="normal" in="SourceGraphic" in2="effect2_dropShadow_1_17152" result="shape"/>
</filter>
<filter id="filter11_bd_1_17152" x="380.504" y="19.8799" width="489.182" height="455.93" filterUnits="userSpaceOnUse" color-interpolation-filters="sRGB">
<feFlood flood-opacity="0" result="BackgroundImageFix"/>
<feGaussianBlur in="BackgroundImageFix" stdDeviation="28.0142"/>
<feComposite in2="SourceAlpha" operator="in" result="effect1_backgroundBlur_1_17152"/>
<feColorMatrix in="SourceAlpha" type="matrix" values="0 0 0 0 0 0 0 0 0 0 0 0 0 0 0 0 0 0 127 0" result="hardAlpha"/>
<feOffset dy="25"/>
<feGaussianBlur stdDeviation="50"/>
<feComposite in2="hardAlpha" operator="out"/>
<feColorMatrix type="matrix" values="0 0 0 0 0 0 0 0 0 0 0 0 0 0 0 0 0 0 0.5 0"/>
<feBlend mode="normal" in2="effect1_backgroundBlur_1_17152" result="effect2_dropShadow_1_17152"/>
<feBlend mode="normal" in="SourceGraphic" in2="effect2_dropShadow_1_17152" result="shape"/>
</filter>
<filter id="filter12_bd_1_17152" x="280.206" y="310.359" width="614.277" height="494.537" filterUnits="userSpaceOnUse" color-interpolation-filters="sRGB">
<feFlood flood-opacity="0" result="BackgroundImageFix"/>
<feGaussianBlur in="BackgroundImageFix" stdDeviation="28.0142"/>
<feComposite in2="SourceAlpha" operator="in" result="effect1_backgroundBlur_1_17152"/>
<feColorMatrix in="SourceAlpha" type="matrix" values="0 0 0 0 0 0 0 0 0 0 0 0 0 0 0 0 0 0 127 0" result="hardAlpha"/>
<feOffset dy="25"/>
<feGaussianBlur stdDeviation="50"/>
<feComposite in2="hardAlpha" operator="out"/>
<feColorMatrix type="matrix" values="0 0 0 0 0 0 0 0 0 0 0 0 0 0 0 0 0 0 0.5 0"/>
<feBlend mode="normal" in2="effect1_backgroundBlur_1_17152" result="effect2_dropShadow_1_17152"/>
<feBlend mode="normal" in="SourceGraphic" in2="effect2_dropShadow_1_17152" result="shape"/>
</filter>
<filter id="filter13_bd_1_17152" x="382.284" y="327.4" width="489.522" height="456.23" filterUnits="userSpaceOnUse" color-interpolation-filters="sRGB">
<feFlood flood-opacity="0" result="BackgroundImageFix"/>
<feGaussianBlur in="BackgroundImageFix" stdDeviation="28.0142"/>
<feComposite in2="SourceAlpha" operator="in" result="effect1_backgroundBlur_1_17152"/>
<feColorMatrix in="SourceAlpha" type="matrix" values="0 0 0 0 0 0 0 0 0 0 0 0 0 0 0 0 0 0 127 0" result="hardAlpha"/>
<feOffset dy="25"/>
<feGaussianBlur stdDeviation="50"/>
<feComposite in2="hardAlpha" operator="out"/>
<feColorMatrix type="matrix" values="0 0 0 0 0 0 0 0 0 0 0 0 0 0 0 0 0 0 0.5 0"/>
<feBlend mode="normal" in2="effect1_backgroundBlur_1_17152" result="effect2_dropShadow_1_17152"/>
<feBlend mode="normal" in="SourceGraphic" in2="effect2_dropShadow_1_17152" result="shape"/>
</filter>
<filter id="filter14_bd_1_17152" x="1.3772" y="312.582" width="613.744" height="494.682" filterUnits="userSpaceOnUse" color-interpolation-filters="sRGB">
<feFlood flood-opacity="0" result="BackgroundImageFix"/>
<feGaussianBlur in="BackgroundImageFix" stdDeviation="28.0142"/>
<feComposite in2="SourceAlpha" operator="in" result="effect1_backgroundBlur_1_17152"/>
<feColorMatrix in="SourceAlpha" type="matrix" values="0 0 0 0 0 0 0 0 0 0 0 0 0 0 0 0 0 0 127 0" result="hardAlpha"/>
<feOffset dy="25"/>
<feGaussianBlur stdDeviation="50"/>
<feComposite in2="hardAlpha" operator="out"/>
<feColorMatrix type="matrix" values="0 0 0 0 0 0 0 0 0 0 0 0 0 0 0 0 0 0 0.5 0"/>
<feBlend mode="normal" in2="effect1_backgroundBlur_1_17152" result="effect2_dropShadow_1_17152"/>
<feBlend mode="normal" in="SourceGraphic" in2="effect2_dropShadow_1_17152" result="shape"/>
</filter>
<filter id="filter15_bd_1_17152" x="23.9146" y="330.9" width="488.311" height="455.18" filterUnits="userSpaceOnUse" color-interpolation-filters="sRGB">
<feFlood flood-opacity="0" result="BackgroundImageFix"/>
<feGaussianBlur in="BackgroundImageFix" stdDeviation="28.0142"/>
<feComposite in2="SourceAlpha" operator="in" result="effect1_backgroundBlur_1_17152"/>
<feColorMatrix in="SourceAlpha" type="matrix" values="0 0 0 0 0 0 0 0 0 0 0 0 0 0 0 0 0 0 127 0" result="hardAlpha"/>
<feOffset dy="25"/>
<feGaussianBlur stdDeviation="50"/>
<feComposite in2="hardAlpha" operator="out"/>
<feColorMatrix type="matrix" values="0 0 0 0 0 0 0 0 0 0 0 0 0 0 0 0 0 0 0.5 0"/>
<feBlend mode="normal" in2="effect1_backgroundBlur_1_17152" result="effect2_dropShadow_1_17152"/>
<feBlend mode="normal" in="SourceGraphic" in2="effect2_dropShadow_1_17152" result="shape"/>
</filter>
<linearGradient id="paint0_linear_1_17152" x1="863.853" y1="277.381" x2="922.662" y2="378.196" gradientUnits="userSpaceOnUse">
<stop offset="0.12" stop-color="#FF383D"/>
<stop offset="0.32" stop-color="#FC373C"/>
<stop offset="0.49" stop-color="#F1333A"/>
<stop offset="0.65" stop-color="#E02D37"/>
<stop offset="0.8" stop-color="#C72432"/>
<stop offset="0.95" stop-color="#A8192C"/>
<stop offset="1" stop-color="#9B1429"/>
</linearGradient>
<linearGradient id="paint1_linear_1_17152" x1="842.812" y1="362.745" x2="913.398" y2="317.799" gradientUnits="userSpaceOnUse">
<stop offset="0.12" stop-color="#FF383D"/>
<stop offset="0.32" stop-color="#FC373C"/>
<stop offset="0.49" stop-color="#F1333A"/>
<stop offset="0.65" stop-color="#E02D37"/>
<stop offset="0.8" stop-color="#C72432"/>
<stop offset="0.95" stop-color="#A8192C"/>
<stop offset="1" stop-color="#9B1429"/>
</linearGradient>
<linearGradient id="paint2_linear_1_17152" x1="950.653" y1="278.992" x2="950.653" y2="360.744" gradientUnits="userSpaceOnUse">
<stop offset="0.12" stop-color="#FF383D"/>
<stop offset="0.32" stop-color="#FC373C"/>
<stop offset="0.49" stop-color="#F1333A"/>
<stop offset="0.65" stop-color="#E02D37"/>
<stop offset="0.8" stop-color="#C72432"/>
<stop offset="0.95" stop-color="#A8192C"/>
<stop offset="1" stop-color="#9B1429"/>
</linearGradient>
<linearGradient id="paint3_linear_1_17152" x1="960.33" y1="396.029" x2="845.012" y2="396.029" gradientUnits="userSpaceOnUse">
<stop offset="0.12" stop-color="#FF383D"/>
<stop offset="0.32" stop-color="#FC373C"/>
<stop offset="0.49" stop-color="#F1333A"/>
<stop offset="0.65" stop-color="#E02D37"/>
<stop offset="0.8" stop-color="#C72432"/>
<stop offset="0.95" stop-color="#A8192C"/>
<stop offset="1" stop-color="#9B1429"/>
</linearGradient>
<linearGradient id="paint4_linear_1_17152" x1="780.399" y1="362.745" x2="850.961" y2="317.814" gradientUnits="userSpaceOnUse">
<stop offset="0.12" stop-color="#FF383D"/>
<stop offset="0.32" stop-color="#FC373C"/>
<stop offset="0.49" stop-color="#F1333A"/>
<stop offset="0.65" stop-color="#E02D37"/>
<stop offset="0.8" stop-color="#C72432"/>
<stop offset="0.95" stop-color="#A8192C"/>
<stop offset="1" stop-color="#9B1429"/>
</linearGradient>
<linearGradient id="paint5_linear_1_17152" x1="864.083" y1="277.251" x2="922.891" y2="378.066" gradientUnits="userSpaceOnUse">
<stop offset="0.12" stop-color="#FF383D"/>
<stop offset="0.32" stop-color="#FC373C"/>
<stop offset="0.49" stop-color="#F1333A"/>
<stop offset="0.65" stop-color="#E02D37"/>
<stop offset="0.8" stop-color="#C72432"/>
<stop offset="0.95" stop-color="#A8192C"/>
<stop offset="1" stop-color="#9B1429"/>
</linearGradient>
<linearGradient id="paint6_linear_1_17152" x1="905.34" y1="466.759" x2="825.712" y2="420.27" gradientUnits="userSpaceOnUse">
<stop offset="0.12" stop-color="#FF383D"/>
<stop offset="0.32" stop-color="#FC373C"/>
<stop offset="0.49" stop-color="#F1333A"/>
<stop offset="0.65" stop-color="#E02D37"/>
<stop offset="0.8" stop-color="#C72432"/>
<stop offset="0.95" stop-color="#A8192C"/>
<stop offset="1" stop-color="#9B1429"/>
</linearGradient>
<linearGradient id="paint7_linear_1_17152" x1="815.959" y1="444.848" x2="874.599" y2="343.858" gradientUnits="userSpaceOnUse">
<stop offset="0.12" stop-color="#FF383D"/>
<stop offset="0.32" stop-color="#FC373C"/>
<stop offset="0.49" stop-color="#F1333A"/>
<stop offset="0.65" stop-color="#E02D37"/>
<stop offset="0.8" stop-color="#C72432"/>
<stop offset="0.95" stop-color="#A8192C"/>
<stop offset="1" stop-color="#9B1429"/>
</linearGradient>
<linearGradient id="paint8_linear_1_17152" x1="910.266" y1="449.4" x2="975.353" y2="449.4" gradientUnits="userSpaceOnUse">
<stop offset="0.12" stop-color="#FF383D"/>
<stop offset="0.32" stop-color="#FC373C"/>
<stop offset="0.49" stop-color="#F1333A"/>
<stop offset="0.65" stop-color="#E02D37"/>
<stop offset="0.8" stop-color="#C72432"/>
<stop offset="0.95" stop-color="#A8192C"/>
<stop offset="1" stop-color="#9B1429"/>
</linearGradient>
<linearGradient id="paint9_linear_1_17152" x1="960.33" y1="395.387" x2="845.012" y2="395.387" gradientUnits="userSpaceOnUse">
<stop offset="0.12" stop-color="#FF383D"/>
<stop offset="0.32" stop-color="#FC373C"/>
<stop offset="0.49" stop-color="#F1333A"/>
<stop offset="0.65" stop-color="#E02D37"/>
<stop offset="0.8" stop-color="#C72432"/>
<stop offset="0.95" stop-color="#A8192C"/>
<stop offset="1" stop-color="#9B1429"/>
</linearGradient>
</defs>
</svg>
